<?xml version="1.0" encoding="UTF-8"?>
<svg id="Layer_1" data-name="Layer 1" xmlns="http://www.w3.org/2000/svg" viewBox="0 0 173.5 161.98">
  <path d="M16.52,138.97c1.34-35.34,4.4-71.48,17.03-104.74l-.88-1.16c-8.08-1.97-16.89-3.1-24.75-5.75-3.14-1.06-6.81-2.21-7.66-5.84C-1.16,15.5,3.49,5.51,7.52.97c-1.54,5.91-1.96,18.03,6.24,19.01,6.43.77,16.23.02,23.03-.04,1.67-.02,3.2,1.03,4.44-.51C49.72,6.47,62.14-2.68,78.45.8c2.24.48,6.92,2.98,7.91,3.06.88.07,7.26-2.95,9.46-3.35,15.67-2.82,28.75,6.33,36.33,19.33,1.67,1.28,3.37.13,5.11.11,6.88-.09,16.02.82,22.53.03,3.83-.46,5.71-3.54,6.52-6.98.98-4.21.15-6.78-.22-10.84-.05-.56-.46-1.8.44-1.68,1.95,4.7,5.24,8.81,6.37,13.89,2.25,10.15-1.86,11.42-10.36,13.87-7.1,2.04-14.51,3.22-21.73,4.77-.57.12-.91.18-1.25.72,4.18,9.84,7.07,20.21,9.33,30.66,4.72,21.86,7.36,46.96,8.17,69.32.04.98.27,5.27-.77,5.27h-48.5c-1.38,0-2.1,14.25-3.37,15.88-4.46,1.13-13.44,7.13-17.63,7.13s-13.44-5.96-17.75-7.26c-1.74-1.87-1.34-13.12-3.25-15.75H16.52ZM112.27,54.47c-4.33.05-8.67,0-13,0-.18,0-2.43,1.4-2.78,1.72-2.38,2.25-2.31,5.79-1.72,8.78.77.06,3.18-.94,3.53-1.51.57-.91-1.38-4.24,1.52-5.94,3.67-2.15,5.33,1.82,6.44,1.76.4-.02,6.8-3.47,7.02-3.8.39-.59.29-.94-.27-1.28s-.58.26-.75.26ZM73.77,54.47c-3.99-.66-9.57.49-13.75,0-.19.9.26.99.83,1.42.52.39,6.06,3.38,6.42,3.4,1.05.06,3.02-4.1,6.72-1.54,2.53,1.75.53,4.54,1.25,5.72.43.71,3.5,2.55,3.77.77.59-3.87-.85-9.04-5.25-9.77ZM144.52,94.47H29.78c-.44-.02-.34,1.07-.26,1.25.61,1.33,12.34,5.57,14.39,6.11,12.61,3.29,22.49,2.38,34.6-2.11,3.31-1.23,6.72-4.32,10.1-3.09,5.48,1.99,10.11,4.91,16.27,6.23,10.48,2.25,29.68-.2,38.58-6.69.62-.45,1.23-.78,1.05-1.69ZM73.98,109.02c-.52-.35-2.12-.11-2.4.78-.23.71.37,3.93.72,4.65.22.44,6.83,6.1,7.55,6.45,1.73.86,11.75.92,13.55.19.44-.18,7.07-5.71,7.37-6.13.74-1.03,1.95-5.46.45-5.95-2.6-.85-2.06,1.9-2.44,3.45-.84-1.69-2.12-5.01-4.68-3.43-.74.46-.51,4.43-.69,5.56-.1.6-.63,2.71-1.38,2.86-1.04-2.94,1.22-10-3.54-8.28l-1.96,9.28c-.49-1.61-.48-8.56-1.47-9.28-4.01-2.91-3.17,6.84-3.79,8.79-1.26-1.26-1.35-8.56-1.78-8.98-.23-.22-2.47-.09-2.98.22-.81.48-1.06,2.57-1.74,3.26-.46-.02-.2-3.05-.8-3.46Z"/>
</svg>